<?xml version="1.0" standalone="no"?>
<!DOCTYPE svg PUBLIC "-//W3C//DTD SVG 1.1//EN" "http://www.w3.org/Graphics/SVG/1.1/DTD/svg11.dtd"><svg t="1697174201154"
	class="icon" viewBox="0 0 1024 1024" version="1.1" xmlns="http://www.w3.org/2000/svg" p-id="14825"
	data-spm-anchor-id="a313x.search_index.0.i38.1bd73a81bap4US" xmlns:xlink="http://www.w3.org/1999/xlink" width="200"
	height="200">
	<path
		d="M861.0816 228.2496l-333.3632-145.1008a30.51008 30.51008 0 0 0-24.5248 0l-333.312 145.1008a30.69952 30.69952 0 0 0-18.4832 28.16v269.312c0 272.896 340.224 406.1696 354.7136 411.6992 3.5328 1.3312 7.2704 2.048 10.9568 2.048 3.84 0 7.6288-0.7168 11.264-2.1504 14.336-5.632 351.1808-141.5168 351.1808-411.5968v-269.312a30.67904 30.67904 0 0 0-18.432-28.16z"
		fill="#07C160" p-id="14826" data-spm-anchor-id="a313x.search_index.0.i33.1bd73a81bap4US" class=""></path>
	<path
		d="M485.4272 634.88a30.5664 30.5664 0 0 1-21.7088-9.0112l-122.88-122.88c-11.9808-11.9808-11.9808-31.4368 0-43.4688a30.72 30.72 0 0 1 43.4176 0l100.864 100.864L656.8448 384c11.8272-12.1344 31.2832-12.4416 43.4176-0.5632a30.72 30.72 0 0 1 0.5632 43.4176l-193.4848 198.7072a30.65856 30.65856 0 0 1-21.8112 9.2672c0.0512 0.0512-0.0512 0.0512-0.1024 0.0512z"
		fill="#ffffff" p-id="14827" data-spm-anchor-id="a313x.search_index.0.i34.1bd73a81bap4US" class=""></path>
</svg>